HIERARCHY
ROOT Hips
{
	OFFSET -0.179506 -22.333345 2.821913
	CHANNELS 6 Xposition Yposition Zposition Zrotation Yrotation Xrotation 
	JOINT LeftUpLeg
	{
		OFFSET 6.951974 -9.140623 -0.681533
		CHANNELS 3 Zrotation Yrotation Xrotation
		JOINT LeftLeg
		{
			OFFSET 3.427654 -37.519855 -0.449580
			CHANNELS 3 Zrotation Yrotation Xrotation
			JOINT LeftFoot
			{
				OFFSET -1.359570 -39.796059 -4.369333
				CHANNELS 3 Zrotation Yrotation Xrotation
				JOINT LeftToe
				{
					OFFSET 2.635814 -5.579078 11.928840
					CHANNELS 3 Zrotation Yrotation Xrotation
					End Site
					{
						OFFSET 0.000000 0.000000 0.000000
					}
				}
			}
		}
	}
	JOINT RightUpLeg
	{
		OFFSET -6.767048 -9.052170 -0.431982
		CHANNELS 3 Zrotation Yrotation Xrotation
		JOINT RightLeg
		{
			OFFSET -3.829005 -38.256897 -0.885003
			CHANNELS 3 Zrotation Yrotation Xrotation
			JOINT RightFoot
			{
				OFFSET 1.577377 -39.841461 -4.231180
				CHANNELS 3 Zrotation Yrotation Xrotation
				JOINT RightToe
				{
					OFFSET -2.537174 -4.814398 12.334795
					CHANNELS 3 Zrotation Yrotation Xrotation
					End Site
					{
						OFFSET 0.000000 0.000000 0.000000
					}
				}
			}
		}
	}
	JOINT Spine
	{
		OFFSET -0.253288 10.896323 -2.669631
		CHANNELS 3 Zrotation Yrotation Xrotation
		JOINT Spine1
		{
			OFFSET 0.548704 13.518043 0.109247
			CHANNELS 3 Zrotation Yrotation Xrotation
			JOINT Spine2
			{
				OFFSET 0.145701 5.292222 2.542457
				CHANNELS 3 Zrotation Yrotation Xrotation
				JOINT Neck
				{
					OFFSET -0.277840 21.387037 -4.285703
					CHANNELS 3 Zrotation Yrotation Xrotation
					JOINT Head
					{
						OFFSET 0.515184 6.496960 5.134897
						CHANNELS 3 Zrotation Yrotation Xrotation
						End Site
						{
							OFFSET 0.000000 0.000000 0.000000
						}
					}
				}
				JOINT LeftShoulder
				{
					OFFSET 7.884473 12.174932 -3.408961
					CHANNELS 3 Zrotation Yrotation Xrotation
					JOINT LeftArm
					{
						OFFSET 9.097692 3.046888 -0.886815
						CHANNELS 3 Zrotation Yrotation Xrotation
						JOINT LeftForeArm
						{
							OFFSET 25.961220 -1.277207 -2.745643
							CHANNELS 3 Zrotation Yrotation Xrotation
							JOINT LeftHand
							{
								OFFSET 24.923361 0.898606 -0.117091
								CHANNELS 3 Zrotation Yrotation Xrotation
								End Site
								{
									OFFSET 0.000000 0.000000 0.000000
								}
							}
						}
					}
				}
				JOINT RightShoulder
				{
					OFFSET -8.175920 11.883285 -3.861528
					CHANNELS 3 Zrotation Yrotation Xrotation
					JOINT RightArm
					{
						OFFSET -9.601238 3.255117 -0.914307
						CHANNELS 3 Zrotation Yrotation Xrotation
						JOINT RightForeArm
						{
							OFFSET -25.374195 -1.332924 -2.140099
							CHANNELS 3 Zrotation Yrotation Xrotation
							JOINT RightHand
							{
								OFFSET -25.529810 0.777228 -0.555919
								CHANNELS 3 Zrotation Yrotation Xrotation
								End Site
								{
									OFFSET 0.000000 0.000000 0.000000
								}
							}
						}
					}
				}
			}
		}
	}
}
MOTION
Frames: 7
Frame Time: 0.033333
-31.589504 20.869635 95.782265 175.547443 -0.577154 92.430893 -0.980335 -2.939534 0.770337 1.145478 -10.592790 -2.047900 2.527271 11.315683 -3.598092 nan nan nan -1.505846 0.408471 -2.792598 1.901263 2.784849 -0.006336 3.550381 -8.272405 0.338976 nan nan nan -1.788363 1.169399 0.705687 3.092380 -2.686392 -1.224475 0.156984 -0.591579 -1.001063 -2.091909 -4.854063 -6.475766 1.590682 -1.863312 -1.756981 -17.221246 3.033951 -0.910087 -66.659748 -3.335147 20.835905 3.495233 -12.742100 -5.402724 -8.015468 -15.704440 -19.309358 19.217780 0.812399 -2.871442 62.057157 1.930555 19.416196 -3.065605 24.237552 1.488366 5.894998 8.609269 -14.571011 
-31.535139 20.843096 95.792755 175.287334 -0.383072 92.494554 -0.793160 -3.033979 0.784031 1.230172 -10.490600 -2.142000 2.484956 11.592149 -3.638222 nan nan nan -1.183594 0.605204 -2.919114 1.762308 2.842122 0.010385 3.578463 -8.321637 0.466265 nan nan nan -1.661940 1.254050 0.625996 3.146450 -2.538259 -1.245901 0.245011 -0.479272 -0.807694 -1.995834 -4.102244 -6.347184 1.766950 -1.368332 -2.168053 -17.382399 3.113471 -1.109342 -66.635900 -3.393326 20.691191 3.548360 -12.830022 -5.258869 -6.606704 -15.580514 -18.778943 19.234953 0.700973 -2.909888 62.022577 2.313100 18.857125 -3.305261 23.768439 0.619742 4.597975 8.642927 -14.457919 
-31.581339 20.744062 95.779022 175.525818 -0.402785 92.526855 -0.819410 -3.064640 0.580344 1.192320 -10.524399 -2.056326 2.435897 11.509750 -3.617724 nan nan nan -1.184773 0.574694 -2.949654 1.697691 2.776103 -0.086865 3.506609 -8.495011 0.440701 nan nan nan -1.492750 1.214556 0.775877 3.029401 -2.603473 -1.477920 0.171010 -0.518300 -0.685299 -2.149091 -4.529060 -6.393477 1.773344 -1.673406 -2.177323 -17.476644 2.859308 -1.106166 -66.529757 -3.568209 20.610054 3.443789 -12.760779 -5.445436 -6.345500 -15.641009 -18.594520 19.159830 0.838528 -2.969248 62.036632 2.095546 18.793205 -2.959420 24.097387 1.202135 4.451632 8.702293 -14.131240 
-31.617031 20.627275 95.777260 175.820285 -0.443920 92.668276 -0.857355 -3.103262 0.169041 1.175565 -10.611213 -1.819060 2.373689 11.341112 -3.608508 nan nan nan -1.246659 0.500858 -3.120476 1.714882 2.644796 -0.163593 3.448421 -8.569693 0.457908 nan nan nan -1.394854 1.157792 0.906631 2.955349 -2.693155 -1.744082 0.147114 -0.560044 -0.621088 -2.217406 -4.526011 -6.383462 1.896269 -1.533551 -2.262740 -17.655364 2.692811 -1.149982 -66.371555 -3.694377 20.584967 3.435736 -12.703319 -5.581105 -6.606541 -15.882578 -18.538916 19.086975 0.821194 -3.068318 62.083456 1.960543 18.722088 -2.900996 24.227718 1.481612 4.706581 8.763519 -13.932958 
-31.719511 20.689775 95.822685 176.845040 -0.397199 92.271090 -0.924380 -3.510606 0.495905 1.300800 -11.556235 -1.731661 2.505957 11.582675 -3.430372 nan nan nan -1.395040 0.007203 -2.003629 2.023355 2.797302 -1.061537 3.199615 -9.073668 0.628283 nan nan nan -1.215819 1.198357 0.719843 2.935791 -3.272231 -1.180955 0.044183 -0.707620 -0.376856 -2.411922 -5.489068 -6.347127 2.271764 -0.628032 -2.557232 -18.916941 2.135125 -0.603964 -64.954149 -2.877097 20.059200 4.266729 -15.747560 -4.729705 -6.350791 -15.526405 -19.480091 19.342628 0.768111 -3.315548 61.722969 1.681502 18.148586 -2.977971 24.695936 2.799635 5.475528 7.928631 -12.497607 
-31.678875 20.638002 95.843765 176.893970 -0.570431 92.578614 -1.039103 -3.812560 0.260243 1.565754 -12.270073 -1.793571 2.466853 11.892234 -3.030254 nan nan nan -1.769256 0.206067 -2.257172 2.381855 3.075534 -1.111577 3.426149 -9.534642 0.495014 nan nan nan -1.609151 1.154700 1.059083 2.844420 -2.848583 -2.697819 0.340584 0.022790 0.699499 -2.947856 -7.103415 -6.776236 2.736266 -0.315307 -2.741404 -18.493259 0.649994 -0.194079 -65.387381 -2.738810 19.204614 4.774173 -15.767245 -3.553794 -8.294781 -17.062667 -21.327221 19.383293 -0.393003 -4.731613 62.046191 0.608745 15.602367 -3.656600 24.364051 9.215413 10.164237 4.864199 -0.731014 
-31.593336 20.446135 95.870995 176.953042 -0.503778 92.948555 -0.753922 -3.918605 -0.486546 1.338721 -12.109635 -1.393440 2.382684 11.770015 -3.047828 nan nan nan -1.615776 0.425243 -2.881183 2.310887 2.884796 -0.853177 3.455448 -9.657087 0.596982 nan nan nan -1.842473 1.098510 0.966280 2.997741 -2.886724 -3.024266 0.468477 -0.021193 0.788750 -2.917518 -6.895640 -6.784400 2.768025 -0.323209 -2.826993 -18.042240 0.754210 -0.351685 -65.637301 -2.448074 19.634972 4.607839 -16.291249 -2.564311 -6.940650 -17.330606 -22.988656 19.170257 -0.384844 -4.819203 62.320385 0.590853 15.803906 -3.688466 24.400537 8.916393 8.201032 5.343629 -2.183444 
